<svg xmlns="http://www.w3.org/2000/svg" width="520" height="520" viewBox="0 0 520 520" version="1.1">
	<path d="M 250.995 18.250 C 250.993 18.938, 250.114 28.275, 249.043 39 C 247.136 58.095, 247.003 58.708, 242.630 68.500 C 240.174 74, 230.206 96.500, 220.480 118.500 C 210.754 140.500, 195.221 175.600, 185.964 196.500 C 176.706 217.400, 166.875 239.675, 164.117 246 L 159.103 257.500 210.551 257.759 L 262 258.018 261.937 261.259 C 261.903 263.042, 261.340 267.875, 260.687 272 L 259.500 279.500 196.250 279.757 C 156.499 279.919, 133 279.660, 133 279.059 C 133 278.208, 142.366 256.803, 173.501 186.500 C 178.616 174.950, 194.128 139.850, 207.971 108.500 C 221.815 77.150, 236.326 44.403, 240.217 35.729 C 244.108 27.055, 247.002 19.669, 246.649 19.315 C 245.627 18.294, 224.617 20.878, 211.500 23.639 C 143.836 37.882, 85.556 80.532, 50.541 141.432 C 36.297 166.206, 26.381 194.742, 21.328 225.500 C 18.759 241.140, 18.759 281.860, 21.328 297.500 C 28.126 338.876, 44.068 376.512, 68.254 408.276 C 100.327 450.399, 144.700 480.739, 195.688 495.409 C 207.925 498.930, 232.747 503.587, 233.778 502.555 C 234.102 502.232, 236.529 486.541, 239.173 467.686 L 243.981 433.405 300.822 318.452 L 357.664 203.500 371.332 203.222 C 378.849 203.069, 385 203.247, 385 203.619 C 385 204.291, 295.673 385.376, 257.827 461.428 C 242.866 491.490, 238.271 501.573, 239.229 502.234 C 241.234 503.620, 283.255 502.354, 294.500 500.569 C 368.255 488.860, 431.973 445.072, 468.962 380.677 C 483.624 355.153, 493.962 325.341, 498.675 295 C 501.179 278.876, 501.182 241.158, 498.680 225 C 485.066 137.067, 426.046 63.691, 344 32.694 C 324.265 25.238, 306.784 21.022, 285.006 18.466 C 269.130 16.603, 251.002 16.488, 250.995 18.250" stroke="none" fill="black" fill-rule="evenodd"/>
</svg>